<svg width="686" height="127" viewBox="0 0 686 127" fill="none" xmlns="http://www.w3.org/2000/svg">
<path d="M191.729 96.5983C186.735 96.5983 182.24 95.7147 178.245 93.9476C174.327 92.1037 171.215 89.6451 168.91 86.5719C166.605 83.4219 165.376 79.9261 165.222 76.0846H178.821C179.052 78.7737 180.319 81.0401 182.624 82.8841C185.006 84.6512 187.964 85.5347 191.498 85.5347C195.186 85.5347 198.029 84.8432 200.026 83.4603C202.101 82.0005 203.138 80.1566 203.138 77.9285C203.138 75.5468 201.985 73.7797 199.681 72.6272C197.452 71.4748 193.88 70.2071 188.963 68.8241C184.199 67.518 180.319 66.2503 177.323 65.021C174.327 63.7917 171.714 61.9094 169.486 59.374C167.335 56.8386 166.259 53.4965 166.259 49.3476C166.259 45.9671 167.258 42.8939 169.256 40.128C171.253 37.2853 174.096 35.0572 177.784 33.4438C181.549 31.8303 185.851 31.0236 190.691 31.0236C197.913 31.0236 203.714 32.8675 208.093 36.5554C212.55 40.1664 214.931 45.122 215.239 51.4221H202.101C201.87 48.5793 200.718 46.3128 198.643 44.6226C196.569 42.9323 193.765 42.0872 190.23 42.0872C186.773 42.0872 184.122 42.7402 182.278 44.0464C180.435 45.3525 179.513 47.0812 179.513 49.2324C179.513 50.9227 180.127 52.344 181.357 53.4965C182.586 54.6489 184.084 55.5709 185.851 56.2624C187.618 56.877 190.23 57.6837 193.688 58.6825C198.298 59.9118 202.062 61.1795 204.982 62.4856C207.978 63.7149 210.552 65.5588 212.703 68.0174C214.855 70.476 215.969 73.7413 216.045 77.8133C216.045 81.4243 215.047 84.6512 213.049 87.4939C211.051 90.3366 208.209 92.5647 204.521 94.1781C200.91 95.7916 196.646 96.5983 191.729 96.5983Z" fill="white"/>
<path d="M283.139 32.0608V95.5611H270.001V88.0701C267.927 90.6823 265.199 92.7568 261.819 94.2934C258.515 95.7531 254.981 96.483 251.216 96.483C246.222 96.483 241.727 95.4458 237.732 93.3714C233.814 91.297 230.702 88.2238 228.397 84.1518C226.169 80.0798 225.055 75.1626 225.055 69.4003V32.0608H238.078V67.4412C238.078 73.1266 239.499 77.5059 242.342 80.5792C245.185 83.5755 249.065 85.0737 253.982 85.0737C258.899 85.0737 262.779 83.5755 265.622 80.5792C268.541 77.5059 270.001 73.1266 270.001 67.4412V32.0608H283.139Z" fill="white"/>
<path d="M304.392 41.3957C306.62 38.4762 309.655 36.0176 313.496 34.02C317.338 32.0224 321.679 31.0236 326.519 31.0236C332.051 31.0236 337.083 32.4066 341.616 35.1725C346.226 37.8615 349.837 41.6646 352.449 46.5818C355.061 51.4989 356.368 57.1459 356.368 63.5228C356.368 69.8997 355.061 75.6236 352.449 80.6944C349.837 85.6884 346.226 89.6067 341.616 92.4494C337.083 95.2153 332.051 96.5983 326.519 96.5983C321.679 96.5983 317.376 95.6379 313.611 93.7171C309.847 91.7196 306.774 89.261 304.392 86.3414V125.755H291.254V32.0608H304.392V41.3957ZM342.999 63.5228C342.999 59.1435 342.077 55.3788 340.233 52.2288C338.466 49.0019 336.084 46.5818 333.088 44.9683C330.168 43.2781 327.018 42.4329 323.638 42.4329C320.334 42.4329 317.184 43.2781 314.188 44.9683C311.268 46.6586 308.886 49.1172 307.042 52.344C305.275 55.5709 304.392 59.374 304.392 63.7533C304.392 68.1327 305.275 71.9742 307.042 75.2779C308.886 78.5047 311.268 80.9633 314.188 82.6536C317.184 84.3438 320.334 85.189 323.638 85.189C327.018 85.189 330.168 84.3438 333.088 82.6536C336.084 80.8865 338.466 78.3511 340.233 75.0474C342.077 71.7437 342.999 67.9022 342.999 63.5228Z" fill="white"/>
<path d="M360.37 63.5228C360.37 57.1459 361.677 51.4989 364.289 46.5818C366.978 41.6646 370.589 37.8615 375.122 35.1725C379.732 32.4066 384.803 31.0236 390.334 31.0236C395.328 31.0236 399.669 32.0224 403.357 34.02C407.122 35.9408 410.118 38.3609 412.346 41.2805V32.0608H425.599V95.5611H412.346V86.1109C410.118 89.1073 407.083 91.6043 403.242 93.6019C399.4 95.5995 395.021 96.5983 390.104 96.5983C384.649 96.5983 379.655 95.2153 375.122 92.4494C370.589 89.6067 366.978 85.6884 364.289 80.6944C361.677 75.6236 360.37 69.8997 360.37 63.5228ZM412.346 63.7533C412.346 59.374 411.424 55.5709 409.58 52.344C407.813 49.1172 405.47 46.6586 402.55 44.9683C399.631 43.2781 396.481 42.4329 393.1 42.4329C389.72 42.4329 386.57 43.2781 383.65 44.9683C380.731 46.5818 378.349 49.0019 376.505 52.2288C374.738 55.3788 373.854 59.1435 373.854 63.5228C373.854 67.9022 374.738 71.7437 376.505 75.0474C378.349 78.3511 380.731 80.8865 383.65 82.6536C386.646 84.3438 389.797 85.189 393.1 85.189C396.481 85.189 399.631 84.3438 402.55 82.6536C405.47 80.9633 407.813 78.5047 409.58 75.2779C411.424 71.9742 412.346 68.1327 412.346 63.7533Z" fill="white"/>
<path d="M472.589 78.8505V95.5611H462.563C455.417 95.5611 449.847 93.8324 445.852 90.375C441.857 86.8408 439.859 81.117 439.859 73.2035V47.619H432.022V31.2541H439.859V15.5807H459.566V31.2541H472.474V47.619H459.566V73.434C459.566 75.3547 460.027 76.7377 460.949 77.5828C461.871 78.4279 463.408 78.8505 465.559 78.8505H472.589Z" fill="white"/>
<path d="M549.256 31.2541L508.92 126.101H487.715L502.466 93.3714L476.306 31.2541H498.317L513.184 71.4748L527.935 31.2541H549.256Z" fill="white"/>
<path d="M571.479 40.3585C573.4 37.3621 576.051 34.942 579.431 33.098C582.812 31.2541 586.769 30.3322 591.302 30.3322C596.603 30.3322 601.405 31.6767 605.707 34.3658C610.01 37.0548 613.39 40.8963 615.849 45.8903C618.384 50.8843 619.652 56.6849 619.652 63.2924C619.652 69.8998 618.384 75.7389 615.849 80.8097C613.39 85.8036 610.01 89.6836 605.707 92.4495C601.405 95.1385 596.603 96.483 591.302 96.483C586.845 96.483 582.889 95.5611 579.431 93.7172C576.051 91.8732 573.4 89.4915 571.479 86.5719V126.216H551.772V31.2541H571.479V40.3585ZM599.599 63.2924C599.599 58.3752 598.216 54.5337 595.45 51.7678C592.761 48.9251 589.419 47.5037 585.424 47.5037C581.506 47.5037 578.164 48.9251 575.398 51.7678C572.709 54.6105 571.364 58.4905 571.364 63.4076C571.364 68.3247 572.709 72.2047 575.398 75.0474C578.164 77.8901 581.506 79.3115 585.424 79.3115C589.342 79.3115 592.685 77.8901 595.45 75.0474C598.216 72.1278 599.599 68.2095 599.599 63.2924Z" fill="white"/>
<path d="M686 62.3704C686 64.2143 685.885 66.1351 685.654 68.1327H641.054C641.362 72.1278 642.629 75.2011 644.857 77.3523C647.162 79.4267 649.967 80.4639 653.27 80.4639C658.187 80.4639 661.606 78.3895 663.527 74.2407H684.502C683.426 78.4663 681.467 82.2694 678.624 85.65C675.858 89.0305 672.363 91.6812 668.137 93.6019C663.911 95.5227 659.186 96.483 653.962 96.483C647.662 96.483 642.053 95.1385 637.136 92.4495C632.219 89.7604 628.377 85.9189 625.611 80.9249C622.846 75.9309 621.463 70.0918 621.463 63.4076C621.463 56.7234 622.807 50.8843 625.496 45.8903C628.262 40.8963 632.104 37.0548 637.021 34.3658C641.938 31.6767 647.585 30.3322 653.962 30.3322C660.185 30.3322 665.717 31.6383 670.557 34.2505C675.397 36.8627 679.162 40.589 681.851 45.4293C684.617 50.2696 686 55.9167 686 62.3704ZM665.832 57.1843C665.832 53.8038 664.68 51.1148 662.375 49.1172C660.07 47.1196 657.189 46.1208 653.731 46.1208C650.428 46.1208 647.623 47.0812 645.318 49.0019C643.09 50.9227 641.707 53.6502 641.17 57.1843H665.832Z" fill="white"/>
<path d="M40.5171 97.8638L74.979 97.8638L116.285 97.8638L100.062 107.171V125.496L12.6648 125.496L40.5171 97.8638Z" fill="url(#paint0_linear_17_13)"/>
<path d="M104.213 85.1991L142.766 85.1991L102.481 125.496L64.4751 125.496L104.213 85.1991Z" fill="url(#paint1_linear_17_13)"/>
<path d="M104.125 85.1991L64.4751 42.3598L66.4889 40.2969L100.659 40.2969L142.766 85.1991L104.125 85.1991Z" fill="url(#paint2_linear_17_13)"/>
<path d="M102.373 27.8675L68.0636 27.8675L39.1455 28.7834L43.0915 18.4805L43.0915 -2.28654e-05L130.101 -5.72205e-06L102.373 27.8675Z" fill="url(#paint3_linear_17_13)"/>
<path d="M38.553 40.2969L-7.04573e-06 40.2969L40.2852 7.04368e-06L78.2911 1.36888e-05L38.553 40.2969Z" fill="url(#paint4_linear_17_13)"/>
<path d="M38.6411 40.2969L78.291 83.1361L76.2773 85.1991L42.1076 85.1991L0 40.2969L38.6411 40.2969Z" fill="url(#paint5_linear_17_13)"/>
<defs>
<linearGradient id="paint0_linear_17_13" x1="12.6648" y1="111.68" x2="56.3004" y2="153.718" gradientUnits="userSpaceOnUse">
<stop stop-color="#8100DF"/>
<stop offset="1" stop-color="#1E1E1E"/>
</linearGradient>
<linearGradient id="paint1_linear_17_13" x1="103.621" y1="85.1991" x2="103.621" y2="125.496" gradientUnits="userSpaceOnUse">
<stop stop-color="#7C02C7"/>
<stop offset="1" stop-color="#3C0161"/>
</linearGradient>
<linearGradient id="paint2_linear_17_13" x1="103.621" y1="40.2969" x2="103.539" y2="172.493" gradientUnits="userSpaceOnUse">
<stop stop-color="#550385"/>
<stop offset="1" stop-color="#14011F"/>
</linearGradient>
<linearGradient id="paint3_linear_17_13" x1="130.101" y1="13.9337" x2="86.1189" y2="-27.8938" gradientUnits="userSpaceOnUse">
<stop stop-color="#8100DF"/>
<stop offset="1" stop-color="#1E1E1E"/>
</linearGradient>
<linearGradient id="paint4_linear_17_13" x1="39.1455" y1="40.2969" x2="39.1455" y2="6.84442e-06" gradientUnits="userSpaceOnUse">
<stop stop-color="#7C02C7"/>
<stop offset="1" stop-color="#3C0161"/>
</linearGradient>
<linearGradient id="paint5_linear_17_13" x1="39.1455" y1="85.1991" x2="39.2274" y2="-46.9965" gradientUnits="userSpaceOnUse">
<stop stop-color="#550385"/>
<stop offset="1" stop-color="#14011F"/>
</linearGradient>
</defs>
</svg>
